<svg xmlns="http://www.w3.org/2000/svg" viewBox="0 0 545.37 545.25"><defs><style>.cls-1{fill:#fff}</style></defs><g id="Layer_2" data-name="Layer 2"><g id="main_logo_45_copy" data-name="main logo 45 copy"><path class="cls-1" d="m409.2 511.17-34 34-375.08.08H.1v-.03L0 170.14l33.93-33.93.19 375.04 375.08-.08z"/><path class="cls-1" d="m368.12 443.26-35.35 33.99H68.12v-.38l-.19-265.7L102.11 177v266.26h266.01zM369.11 258.52l-82.37.1v-.05l.11-82.32h82.27l-.01 82.27z"/><path class="cls-1" d="M355.12 293.15 239.15 409.13h-48.09l81.85-81.85-54.65.07h-.17l.01-.08-.11-54.83-81.85 81.85v-48.08l115.97-115.98-.11 103.16 103.12-.24zM287.24 409.12l39.12-39.13 42.75-42.81v81.94h-81.87zM136.07 257.95l39.13-39.13 42.8-42.75-81.93.01v81.87zM285.79 108.26l-33.68 33.85-115.99.15.02-60.18-68.02 68.02v-48.08L170.14 0v108.26h115.65zM437.11 108.26v150.36l-33.86-.01-.12-116.35-116.33-.12v-33.87l150.31-.01zM545.37 375.23 443.34 477.26h-48.08l68.01-68.01h-60.15l.15-115.97 33.84-33.86v115.81h108.26z"/></g></g></svg>